<svg width="227" height="40" viewBox="0 0 227 40" fill="none" xmlns="http://www.w3.org/2000/svg">
<path d="M5.87981 28.03H1.26617L8.296 7.66639H13.8443L20.8642 28.03H16.2505L11.1497 12.3198H10.9906L5.87981 28.03ZM5.59145 20.0258H16.4892V23.3866H5.59145V20.0258ZM23.2356 28.03V12.7573H27.3422V15.4221H27.5013C27.7797 14.4742 28.247 13.7582 28.9032 13.2743C29.5595 12.7838 30.3152 12.5386 31.1703 12.5386C31.3824 12.5386 31.6111 12.5518 31.8564 12.5783C32.1016 12.6048 32.3171 12.6413 32.5027 12.6877V16.4462C32.3038 16.3866 32.0287 16.3335 31.6774 16.2871C31.3261 16.2407 31.0046 16.2175 30.7129 16.2175C30.0898 16.2175 29.533 16.3534 29.0424 16.6252C28.5585 16.8904 28.1741 17.2616 27.889 17.7388C27.6106 18.2161 27.4714 18.7663 27.4714 19.3894V28.03H23.2356ZM34.6131 28.03V25.5045L42.0904 16.2474V16.138H34.8716V12.7573H47.1912V15.5116L40.1714 24.54V24.6493H47.4498V28.03H34.6131ZM57.1518 28.3283C55.6073 28.3283 54.2716 28.0002 53.1447 27.3439C52.0245 26.6811 51.1594 25.7597 50.5495 24.5797C49.9397 23.3932 49.6348 22.0177 49.6348 20.4533C49.6348 18.8757 49.9397 17.4969 50.5495 16.317C51.1594 15.1304 52.0245 14.209 53.1447 13.5528C54.2716 12.8899 55.6073 12.5584 57.1518 12.5584C58.6963 12.5584 60.0287 12.8899 61.149 13.5528C62.2759 14.209 63.1442 15.1304 63.7541 16.317C64.3639 17.4969 64.6689 18.8757 64.6689 20.4533C64.6689 22.0177 64.3639 23.3932 63.7541 24.5797C63.1442 25.7597 62.2759 26.6811 61.149 27.3439C60.0287 28.0002 58.6963 28.3283 57.1518 28.3283ZM57.1717 25.0471C57.8744 25.0471 58.461 24.8482 58.9317 24.4505C59.4023 24.0461 59.7569 23.4959 59.9956 22.7999C60.2408 22.1039 60.3635 21.3118 60.3635 20.4235C60.3635 19.5352 60.2408 18.7431 59.9956 18.0471C59.7569 17.3511 59.4023 16.8009 58.9317 16.3965C58.461 15.9922 57.8744 15.79 57.1717 15.79C56.4624 15.79 55.8658 15.9922 55.3819 16.3965C54.9047 16.8009 54.5434 17.3511 54.2981 18.0471C54.0595 18.7431 53.9402 19.5352 53.9402 20.4235C53.9402 21.3118 54.0595 22.1039 54.2981 22.7999C54.5434 23.4959 54.9047 24.0461 55.3819 24.4505C55.8658 24.8482 56.4624 25.0471 57.1717 25.0471ZM71.6589 19.2005V28.03H67.4231V12.7573H71.4601V15.4519H71.639C71.9771 14.5636 72.5439 13.861 73.3393 13.3439C74.1348 12.8203 75.0993 12.5584 76.2328 12.5584C77.2934 12.5584 78.2181 12.7904 79.0069 13.2545C79.7958 13.7185 80.4089 14.3814 80.8464 15.2431C81.2839 16.0982 81.5027 17.119 81.5027 18.3056V28.03H77.2669V19.0613C77.2735 18.1266 77.0349 17.3975 76.551 16.8738C76.0671 16.3435 75.4009 16.0783 74.5524 16.0783C73.9823 16.0783 73.4785 16.201 73.041 16.4462C72.6102 16.6915 72.2721 17.0494 72.0268 17.5201C71.7882 17.9841 71.6656 18.5442 71.6589 19.2005ZM95.5574 19.2005V28.03H91.3216V12.7573H95.3585V15.4519H95.5375C95.8755 14.5636 96.4423 13.861 97.2378 13.3439C98.0332 12.8203 98.9977 12.5584 100.131 12.5584C101.192 12.5584 102.117 12.7904 102.905 13.2545C103.694 13.7185 104.307 14.3814 104.745 15.2431C105.182 16.0982 105.401 17.119 105.401 18.3056V28.03H101.165V19.0613C101.172 18.1266 100.933 17.3975 100.449 16.8738C99.9655 16.3435 99.2993 16.0783 98.4508 16.0783C97.8808 16.0783 97.377 16.201 96.9395 16.4462C96.5086 16.6915 96.1705 17.0494 95.9253 17.5201C95.6866 17.9841 95.564 18.5442 95.5574 19.2005ZM113.095 28.3184C112.12 28.3184 111.252 28.1493 110.49 27.8113C109.727 27.4666 109.124 26.9595 108.68 26.29C108.242 25.6138 108.024 24.772 108.024 23.7644C108.024 22.9159 108.179 22.2033 108.491 21.6266C108.803 21.0499 109.227 20.5859 109.764 20.2346C110.301 19.8832 110.91 19.6181 111.593 19.4391C112.283 19.2601 113.005 19.1342 113.761 19.0613C114.649 18.9685 115.365 18.8823 115.909 18.8028C116.452 18.7166 116.847 18.5906 117.092 18.4249C117.337 18.2592 117.46 18.0139 117.46 17.6891V17.6295C117.46 16.9997 117.261 16.5125 116.863 16.1678C116.472 15.8231 115.915 15.6508 115.193 15.6508C114.43 15.6508 113.824 15.8198 113.373 16.1579C112.922 16.4893 112.624 16.9069 112.478 17.4107L108.561 17.0925C108.759 16.1645 109.151 15.3624 109.734 14.6863C110.317 14.0035 111.07 13.4798 111.991 13.1153C112.919 12.744 113.993 12.5584 115.213 12.5584C116.061 12.5584 116.873 12.6579 117.649 12.8567C118.431 13.0556 119.124 13.3638 119.727 13.7814C120.337 14.1991 120.817 14.736 121.169 15.3922C121.52 16.0419 121.696 16.8207 121.696 17.7289V28.03H117.678V25.9121H117.559C117.314 26.3894 116.986 26.8103 116.575 27.1749C116.164 27.5329 115.67 27.8146 115.093 28.0201C114.517 28.2189 113.85 28.3184 113.095 28.3184ZM114.308 25.3951C114.931 25.3951 115.481 25.2725 115.958 25.0272C116.436 24.7753 116.81 24.4372 117.082 24.013C117.354 23.5887 117.49 23.1082 117.49 22.5712V20.9505C117.357 21.0367 117.175 21.1162 116.943 21.1891C116.717 21.2554 116.462 21.3184 116.177 21.378C115.892 21.4311 115.607 21.4808 115.322 21.5272C115.037 21.567 114.778 21.6034 114.546 21.6366C114.049 21.7095 113.615 21.8255 113.244 21.9846C112.873 22.1437 112.584 22.3591 112.379 22.6309C112.173 22.896 112.071 23.2275 112.071 23.6252C112.071 24.2019 112.279 24.6427 112.697 24.9476C113.121 25.2459 113.658 25.3951 114.308 25.3951ZM124.982 28.03V12.7573H129.088V15.4221H129.247C129.526 14.4742 129.993 13.7582 130.649 13.2743C131.306 12.7838 132.061 12.5386 132.916 12.5386C133.129 12.5386 133.357 12.5518 133.602 12.5783C133.848 12.6048 134.063 12.6413 134.249 12.6877V16.4462C134.05 16.3866 133.775 16.3335 133.423 16.2871C133.072 16.2407 132.751 16.2175 132.459 16.2175C131.836 16.2175 131.279 16.3534 130.789 16.6252C130.305 16.8904 129.92 17.2616 129.635 17.7388C129.357 18.2161 129.218 18.7663 129.218 19.3894V28.03H124.982ZM140.443 12.7573L143.247 18.0968L146.121 12.7573H150.466L146.041 20.3937L150.585 28.03H146.26L143.247 22.7502L140.284 28.03H135.909L140.443 20.3937L136.068 12.7573H140.443ZM157.218 7.66639V28.03H152.982V7.66639H157.218ZM164.966 28.3184C163.991 28.3184 163.123 28.1493 162.361 27.8113C161.598 27.4666 160.995 26.9595 160.551 26.29C160.113 25.6138 159.895 24.772 159.895 23.7644C159.895 22.9159 160.05 22.2033 160.362 21.6266C160.674 21.0499 161.098 20.5859 161.635 20.2346C162.172 19.8832 162.782 19.6181 163.464 19.4391C164.154 19.2601 164.876 19.1342 165.632 19.0613C166.52 18.9685 167.236 18.8823 167.78 18.8028C168.323 18.7166 168.718 18.5906 168.963 18.4249C169.208 18.2592 169.331 18.0139 169.331 17.6891V17.6295C169.331 16.9997 169.132 16.5125 168.734 16.1678C168.343 15.8231 167.786 15.6508 167.064 15.6508C166.301 15.6508 165.695 15.8198 165.244 16.1579C164.793 16.4893 164.495 16.9069 164.349 17.4107L160.432 17.0925C160.631 16.1645 161.022 15.3624 161.605 14.6863C162.188 14.0035 162.941 13.4798 163.862 13.1153C164.79 12.744 165.864 12.5584 167.084 12.5584C167.932 12.5584 168.744 12.6579 169.52 12.8567C170.302 13.0556 170.995 13.3638 171.598 13.7814C172.208 14.1991 172.688 14.736 173.04 15.3922C173.391 16.0419 173.567 16.8207 173.567 17.7289V28.03H169.55V25.9121H169.43C169.185 26.3894 168.857 26.8103 168.446 27.1749C168.035 27.5329 167.541 27.8146 166.964 28.0201C166.388 28.2189 165.721 28.3184 164.966 28.3184ZM166.179 25.3951C166.802 25.3951 167.352 25.2725 167.829 25.0272C168.307 24.7753 168.681 24.4372 168.953 24.013C169.225 23.5887 169.361 23.1082 169.361 22.5712V20.9505C169.228 21.0367 169.046 21.1162 168.814 21.1891C168.588 21.2554 168.333 21.3184 168.048 21.378C167.763 21.4311 167.478 21.4808 167.193 21.5272C166.908 21.567 166.649 21.6034 166.417 21.6366C165.92 21.7095 165.486 21.8255 165.115 21.9846C164.744 22.1437 164.455 22.3591 164.25 22.6309C164.044 22.896 163.942 23.2275 163.942 23.6252C163.942 24.2019 164.15 24.6427 164.568 24.9476C164.992 25.2459 165.529 25.3951 166.179 25.3951ZM176.853 28.03V12.7573H180.959V15.4221H181.118C181.397 14.4742 181.864 13.7582 182.52 13.2743C183.177 12.7838 183.932 12.5386 184.787 12.5386C185 12.5386 185.228 12.5518 185.474 12.5783C185.719 12.6048 185.934 12.6413 186.12 12.6877V16.4462C185.921 16.3866 185.646 16.3335 185.295 16.2871C184.943 16.2407 184.622 16.2175 184.33 16.2175C183.707 16.2175 183.15 16.3534 182.66 16.6252C182.176 16.8904 181.791 17.2616 181.506 17.7388C181.228 18.2161 181.089 18.7663 181.089 19.3894V28.03H176.853Z" fill="#1F2026"/>
<path fill-rule="evenodd" clip-rule="evenodd" d="M204.384 27.2775C203.971 26.8131 204.013 26.102 204.478 25.6892L210.282 20.5301L204.478 15.3709C204.013 14.9581 203.971 14.247 204.384 13.7826C204.797 13.3182 205.508 13.2764 205.972 13.6892L212.722 19.6892C212.963 19.9028 213.1 20.2088 213.1 20.5301C213.1 20.8514 212.963 21.1574 212.722 21.3708L205.972 27.3708C205.508 27.7836 204.797 27.7419 204.384 27.2775Z" fill="#1F2026"/>
</svg>
