<svg width="33" height="33" viewBox="0 0 33 33" fill="none" xmlns="http://www.w3.org/2000/svg">
<g clip-path="url(#clip0_1_26936)">
<path d="M32.6 27.9559C32.6 30.4448 30.6444 32.4004 28.1555 32.4004H5.04442C2.55553 32.4004 0.599976 30.4448 0.599976 27.9559V4.84484C0.599976 2.35595 2.55553 0.400391 5.04442 0.400391H28.1555C30.6444 0.400391 32.6 2.35595 32.6 4.84484V27.9559Z" fill="#3B5998"/>
<path d="M25.8444 17.2897H22.8222V28.8453H18.3777V17.2897H15.7111V13.7342H18.3777V11.6008C18.3777 8.48971 19.7111 6.62305 23.3555 6.62305H26.3777V10.1786H24.3333C22.9111 10.1786 22.8222 10.7119 22.8222 11.6897V13.7342H26.3777L25.8444 17.2897Z" fill="white"/>
</g>
<defs>
<clipPath id="clip0_1_26936">
<rect width="32" height="32" fill="white" transform="translate(0.599976 0.400391)"/>
</clipPath>
</defs>
</svg>
