<svg width="33" height="33" viewBox="0 0 33 33" fill="none" xmlns="http://www.w3.org/2000/svg">
<g clip-path="url(#clip0_1_26924)">
<path d="M16.6 0.400391C29.9333 0.400391 32.6 3.06706 32.6 16.4004C32.6 29.7337 29.9333 32.4004 16.6 32.4004C3.26664 32.4004 0.599976 29.7337 0.599976 16.4004C0.599976 3.06706 3.26664 0.400391 16.6 0.400391Z" fill="url(#paint0_linear_1_26924)"/>
<path fill-rule="evenodd" clip-rule="evenodd" d="M16.5998 8.74801C19.0921 8.74801 19.3869 8.75767 20.3713 8.80247C21.2812 8.84394 21.7754 8.99587 22.1044 9.12367C22.5401 9.29301 22.8509 9.49527 23.1777 9.82167C23.5045 10.1484 23.7067 10.4593 23.8757 10.8949C24.0035 11.2239 24.1554 11.7181 24.1969 12.6281C24.2417 13.6121 24.2513 13.9073 24.2513 16.3995C24.2513 18.8918 24.2417 19.1867 24.1969 20.1711C24.1554 21.0809 24.0035 21.5751 23.8757 21.9041C23.7064 22.3399 23.5041 22.6507 23.1777 22.9774C22.8509 23.3042 22.5401 23.5065 22.1044 23.6754C21.7754 23.8032 21.2812 23.9551 20.3713 23.9966C19.3873 24.0415 19.0921 24.0511 16.5998 24.0511C14.1076 24.0511 13.8123 24.0415 12.8283 23.9966C11.9184 23.9551 11.4242 23.8032 11.0952 23.6754C10.6595 23.5061 10.3487 23.3038 10.0219 22.9774C9.6952 22.6507 9.49286 22.3399 9.32393 21.9041C9.19613 21.5751 9.0442 21.0809 9.00273 20.1711C8.95793 19.1871 8.94826 18.8918 8.94826 16.3995C8.94826 13.9073 8.95793 13.6124 9.00273 12.6281C9.0442 11.7181 9.19613 11.2239 9.32393 10.8949C9.49326 10.4593 9.69553 10.1484 10.0219 9.82167C10.3487 9.49494 10.6595 9.29261 11.0952 9.12367C11.4242 8.99587 11.9184 8.84394 12.8283 8.80247C13.8127 8.75767 14.1076 8.74801 16.5998 8.74801ZM16.5998 7.06641C14.065 7.06641 13.7471 7.07714 12.7516 7.12274C11.7584 7.16794 11.08 7.32574 10.4861 7.55654C9.87226 7.79514 9.35173 8.11414 8.83306 8.63314C8.3144 9.15187 7.995 9.67234 7.7568 10.2859C7.526 10.8797 7.3682 11.5581 7.323 12.5513C7.2774 13.5469 7.26666 13.8647 7.26666 16.3995C7.26666 18.9344 7.2774 19.2523 7.323 20.2477C7.3682 21.241 7.526 21.9193 7.7568 22.5132C7.9954 23.1271 8.3144 23.6476 8.8334 24.1663C9.35246 24.6853 9.8726 25.0043 10.4865 25.2429C11.08 25.4737 11.7587 25.6315 12.752 25.6767C13.7475 25.7223 14.0653 25.7331 16.6002 25.7331C19.135 25.7331 19.4529 25.7223 20.4484 25.6767C21.4416 25.6315 22.1203 25.4737 22.7139 25.2429C23.3277 25.0043 23.8483 24.6853 24.3669 24.1663C24.886 23.6473 25.205 23.1271 25.4435 22.5132C25.6743 21.9197 25.8322 21.241 25.8774 20.2477C25.9229 19.2523 25.9337 18.9344 25.9337 16.3995C25.9337 13.8647 25.9229 13.5469 25.8774 12.5513C25.8322 11.5581 25.6743 10.8794 25.4435 10.2859C25.205 9.67201 24.886 9.15147 24.3669 8.63281C23.8479 8.11374 23.3277 7.79474 22.7139 7.55621C22.1196 7.32574 21.4413 7.16794 20.448 7.12274C19.4525 7.07714 19.1347 7.06641 16.5998 7.06641ZM16.5998 11.607C13.9527 11.607 11.8073 13.7529 11.8073 16.3995C11.8073 19.0463 13.9531 21.1921 16.5998 21.1921C19.2465 21.1921 21.3923 19.0463 21.3923 16.3995C21.3923 13.7529 19.2469 11.607 16.5998 11.607ZM16.5998 19.5105C14.8815 19.5105 13.4889 18.1175 13.4889 16.3995C13.4889 14.6813 14.8819 13.2886 16.5998 13.2886C18.3177 13.2886 19.7107 14.6816 19.7107 16.3995C19.7107 18.1179 18.3181 19.5105 16.5998 19.5105ZM22.702 11.4173C22.702 12.0359 22.2006 12.5373 21.5821 12.5373C20.9635 12.5373 20.4621 12.0359 20.4621 11.4173C20.4621 10.7988 20.9635 10.2973 21.5821 10.2973C22.2006 10.2973 22.702 10.7988 22.702 11.4173Z" fill="white"/>
</g>
<defs>
<linearGradient id="paint0_linear_1_26924" x1="29.1402" y1="4.17132" x2="3.96277" y2="28.724" gradientUnits="userSpaceOnUse">
<stop stop-color="#BA00B2"/>
<stop offset="0.5" stop-color="#F40000"/>
<stop offset="1" stop-color="#FFA800"/>
</linearGradient>
<clipPath id="clip0_1_26924">
<rect width="32" height="32" fill="white" transform="translate(0.599976 0.400391)"/>
</clipPath>
</defs>
</svg>
