<svg width="88" height="42" viewBox="0 0 88 42" fill="none" xmlns="http://www.w3.org/2000/svg">
<g clip-path="url(#clip0_2_394)">
<path fill-rule="evenodd" clip-rule="evenodd" d="M20.5478 12C18.3387 12 16.5478 13.7909 16.5478 16V17C16.5478 19.2091 18.3387 21 20.5478 21C22.7569 21 24.5478 19.2091 24.5478 17V16C24.5478 13.7909 22.7569 12 20.5478 12ZM18.0478 16C18.0478 14.6193 19.1671 13.5 20.5478 13.5C21.9285 13.5 23.0478 14.6193 23.0478 16V17C23.0478 18.3807 21.9285 19.5 20.5478 19.5C19.1671 19.5 18.0478 18.3807 18.0478 17V16ZM14.0502 28.3686C14.5211 25.2577 17.5659 23.5 20.55 23.5C23.5336 23.5 26.5788 25.2577 27.0497 28.3686C27.0524 28.3866 27.0503 28.3972 27.0478 28.4048C27.0448 28.4137 27.0381 28.4269 27.0237 28.442C26.9931 28.4741 26.9372 28.5039 26.8649 28.5039H14.235C14.1627 28.5039 14.1068 28.4741 14.0762 28.442C14.0618 28.4269 14.0551 28.4137 14.0521 28.4048C14.0496 28.3972 14.0475 28.3865 14.0502 28.3686ZM20.55 22C17.1211 22 13.1882 24.0404 12.5671 28.1441C12.4041 29.2208 13.3051 30.0039 14.235 30.0039H26.8649C27.7948 30.0039 28.6958 29.2208 28.5328 28.1441C27.9116 24.0404 23.9784 22 20.55 22Z" fill="#1F2026"/>
</g>
<path d="M42.83 26V15.8182H44.3662V20.6804H44.4905L48.7611 15.8182H50.695L46.5885 20.402L50.7099 26H48.8605L45.5693 21.451L44.3662 22.8331V26H42.83ZM52.486 26V18.3636H53.9726V26H52.486ZM53.2368 17.1854C52.9782 17.1854 52.7562 17.0992 52.5706 16.9268C52.3883 16.7512 52.2971 16.5424 52.2971 16.3004C52.2971 16.0552 52.3883 15.8464 52.5706 15.674C52.7562 15.4983 52.9782 15.4105 53.2368 15.4105C53.4953 15.4105 53.7157 15.4983 53.898 15.674C54.0836 15.8464 54.1764 16.0552 54.1764 16.3004C54.1764 16.5424 54.0836 16.7512 53.898 16.9268C53.7157 17.0992 53.4953 17.1854 53.2368 17.1854ZM55.9724 26V18.3636H57.4092V19.5767H57.4887C57.6279 19.1657 57.8732 18.8426 58.2245 18.6072C58.5791 18.3686 58.9802 18.2493 59.4276 18.2493C59.5204 18.2493 59.6298 18.2526 59.7558 18.2592C59.885 18.2659 59.9861 18.2741 60.059 18.2841V19.706C59.9994 19.6894 59.8933 19.6712 59.7408 19.6513C59.5884 19.6281 59.4359 19.6165 59.2835 19.6165C58.9321 19.6165 58.6189 19.6911 58.3438 19.8402C58.072 19.986 57.8566 20.1899 57.6975 20.4517C57.5384 20.7102 57.4589 21.0052 57.4589 21.3366V26H55.9724ZM61.3454 26V18.3636H62.8319V26H61.3454ZM62.0961 17.1854C61.8376 17.1854 61.6155 17.0992 61.4299 16.9268C61.2476 16.7512 61.1565 16.5424 61.1565 16.3004C61.1565 16.0552 61.2476 15.8464 61.4299 15.674C61.6155 15.4983 61.8376 15.4105 62.0961 15.4105C62.3547 15.4105 62.5751 15.4983 62.7574 15.674C62.943 15.8464 63.0358 16.0552 63.0358 16.3004C63.0358 16.5424 62.943 16.7512 62.7574 16.9268C62.5751 17.0992 62.3547 17.1854 62.0961 17.1854ZM70.554 20.228L69.2067 20.4666C69.1504 20.2943 69.0609 20.1302 68.9383 19.9744C68.819 19.8187 68.6566 19.6911 68.4511 19.5916C68.2456 19.4922 67.9887 19.4425 67.6805 19.4425C67.2595 19.4425 66.9082 19.5369 66.6265 19.7259C66.3448 19.9115 66.2039 20.1518 66.2039 20.4467C66.2039 20.7019 66.2984 20.9074 66.4873 21.0632C66.6762 21.219 66.9811 21.3466 67.4021 21.446L68.6151 21.7244C69.3178 21.8868 69.8415 22.1371 70.1862 22.4751C70.5308 22.8132 70.7032 23.2524 70.7032 23.7926C70.7032 24.25 70.5706 24.6577 70.3055 25.0156C70.0436 25.3703 69.6774 25.6487 69.2067 25.8509C68.7394 26.053 68.1975 26.1541 67.581 26.1541C66.7259 26.1541 66.0282 25.9718 65.488 25.6072C64.9478 25.2393 64.6163 24.7173 64.4937 24.0412L65.9305 23.8224C66.02 24.197 66.2039 24.4804 66.4823 24.6726C66.7607 24.8615 67.1237 24.956 67.5711 24.956C68.0583 24.956 68.4478 24.8549 68.7394 24.6527C69.0311 24.4472 69.1769 24.197 69.1769 23.902C69.1769 23.6634 69.0874 23.4628 68.9085 23.3004C68.7328 23.138 68.4627 23.0154 68.0981 22.9325L66.8055 22.6491C66.0929 22.4867 65.5659 22.2282 65.2245 21.8736C64.8864 21.5189 64.7174 21.0698 64.7174 20.5263C64.7174 20.0755 64.8433 19.6811 65.0952 19.343C65.3471 19.005 65.6951 18.7415 66.1393 18.5526C66.5834 18.3603 67.0922 18.2642 67.6656 18.2642C68.4908 18.2642 69.1405 18.4432 69.6144 18.8011C70.0884 19.1558 70.4016 19.6314 70.554 20.228ZM73.8241 21.4659V26H72.3376V15.8182H73.8042V19.6065H73.8987C74.0777 19.1955 74.3511 18.8691 74.719 18.6271C75.0869 18.3852 75.5675 18.2642 76.1608 18.2642C76.6844 18.2642 77.1418 18.3719 77.5329 18.5874C77.9273 18.8028 78.2323 19.1243 78.4477 19.5518C78.6664 19.9761 78.7758 20.5064 78.7758 21.1428V26H77.2893V21.3217C77.2893 20.7616 77.1451 20.3274 76.8568 20.0192C76.5684 19.7076 76.1674 19.5518 75.6537 19.5518C75.3023 19.5518 74.9875 19.6264 74.7091 19.7756C74.434 19.9247 74.2169 20.1435 74.0578 20.4318C73.902 20.7169 73.8241 21.0616 73.8241 21.4659Z" fill="#1F2026"/>
<defs>
<clipPath id="clip0_2_394">
<rect width="24" height="24" fill="white" transform="translate(8.54785 9)"/>
</clipPath>
</defs>
</svg>
