<svg width="25" height="25" viewBox="0 0 25 25" fill="none" xmlns="http://www.w3.org/2000/svg">
<path d="M8.59998 10.55V8.55005H6.59998V13.05C6.59998 13.3261 6.37612 13.55 6.09998 13.55C5.82384 13.55 5.59998 13.3261 5.59998 13.05V7.55005H8.59998C8.59998 5.14633 10.5522 3.55005 12.6 3.55005C14.6575 3.55005 16.6 5.25561 16.6 7.55005H19.6V20.05C19.6 20.8784 18.9284 21.55 18.1 21.55H13.1C12.8239 21.55 12.6 21.3261 12.6 21.05C12.6 20.7739 12.8239 20.55 13.1 20.55H18.1C18.3761 20.55 18.6 20.3261 18.6 20.05V8.55005H16.6V10.55H15.6V8.55005H9.59998V10.55H8.59998ZM12.6 4.55005C11.0477 4.55005 9.59998 5.75377 9.59998 7.55005H15.6C15.6 5.84449 14.1425 4.55005 12.6 4.55005Z" fill="#1F2026"/>
<path d="M8.09998 14.55C8.37612 14.55 8.59998 14.7739 8.59998 15.05V17.55H11.1C11.3761 17.55 11.6 17.7739 11.6 18.05C11.6 18.3261 11.3761 18.55 11.1 18.55H8.59998V21.05C8.59998 21.3261 8.37612 21.55 8.09998 21.55C7.82384 21.55 7.59998 21.3261 7.59998 21.05V18.55H5.09998C4.82384 18.55 4.59998 18.3261 4.59998 18.05C4.59998 17.7739 4.82384 17.55 5.09998 17.55H7.59998V15.05C7.59998 14.7739 7.82384 14.55 8.09998 14.55Z" fill="#1F2026"/>
</svg>
