<svg width="88" height="42" viewBox="0 0 88 42" fill="none" xmlns="http://www.w3.org/2000/svg">
<g opacity="0.87" clip-path="url(#clip0_2_408)">
<path fill-rule="evenodd" clip-rule="evenodd" d="M17.6578 15.5C17.6578 13.8878 18.898 12.5 20.6578 12.5C22.4176 12.5 23.6578 13.8878 23.6578 15.5V16.5H17.6578V15.5ZM16.1578 18V20.5H17.6578V18H23.6578V20.5H25.1578V18H27.1578V28.75C27.1578 29.1642 26.822 29.5 26.4078 29.5H14.9078C14.4936 29.5 14.1578 29.1642 14.1578 28.75V18H16.1578ZM16.1578 16.5V15.5C16.1578 13.1122 18.0177 11 20.6578 11C23.298 11 25.1578 13.1122 25.1578 15.5V16.5H27.9078H28.6578V17.25V28.75C28.6578 29.9926 27.6504 31 26.4078 31H14.9078C13.6652 31 12.6578 29.9926 12.6578 28.75V17.25V16.5H13.4078H16.1578Z" fill="#1F2026"/>
</g>
<path d="M48.473 18.4929C48.42 18.0223 48.2012 17.6577 47.8168 17.3991C47.4323 17.1373 46.9484 17.0064 46.3651 17.0064C45.9475 17.0064 45.5862 17.0727 45.2813 17.2053C44.9763 17.3345 44.7394 17.5135 44.5703 17.7422C44.4046 17.9676 44.3217 18.2244 44.3217 18.5128C44.3217 18.7547 44.3781 18.9635 44.4908 19.1392C44.6068 19.3149 44.7576 19.4624 44.9432 19.5817C45.1321 19.6977 45.3343 19.7955 45.5497 19.875C45.7652 19.9512 45.9723 20.0142 46.1712 20.0639L47.1655 20.3224C47.4903 20.402 47.8234 20.5097 48.1648 20.6456C48.5062 20.7815 48.8227 20.9605 49.1144 21.1825C49.406 21.4046 49.6413 21.6797 49.8203 22.0078C50.0026 22.3359 50.0938 22.7287 50.0938 23.1861C50.0938 23.7628 49.9446 24.2749 49.6463 24.7223C49.3513 25.1697 48.9221 25.5227 48.3587 25.7812C47.7985 26.0398 47.1207 26.169 46.3253 26.169C45.563 26.169 44.9034 26.0481 44.3466 25.8061C43.7898 25.5642 43.3539 25.2211 43.0391 24.777C42.7242 24.3295 42.5502 23.7992 42.5171 23.1861H44.0582C44.0881 23.554 44.2074 23.8606 44.4162 24.1058C44.6283 24.3478 44.8984 24.5284 45.2266 24.6477C45.558 24.7637 45.9209 24.8217 46.3154 24.8217C46.7495 24.8217 47.1357 24.7538 47.4737 24.6179C47.8151 24.4787 48.0836 24.2865 48.2791 24.0412C48.4747 23.7926 48.5725 23.5026 48.5725 23.1712C48.5725 22.8696 48.4863 22.6226 48.3139 22.4304C48.1449 22.2382 47.9145 22.0791 47.6229 21.9531C47.3345 21.8272 47.0081 21.7161 46.6435 21.62L45.4404 21.2919C44.625 21.0698 43.9787 20.7434 43.5014 20.3125C43.0275 19.8816 42.7905 19.3116 42.7905 18.6023C42.7905 18.0156 42.9496 17.5036 43.2678 17.0661C43.5859 16.6286 44.0168 16.2888 44.5604 16.0469C45.1039 15.8016 45.7171 15.679 46.3999 15.679C47.0893 15.679 47.6975 15.8 48.2244 16.0419C48.7547 16.2839 49.1724 16.617 49.4773 17.0412C49.7822 17.4621 49.9413 17.946 49.9546 18.4929H48.473ZM54.0325 26.169C53.5486 26.169 53.1111 26.0795 52.72 25.9006C52.3289 25.7183 52.019 25.4548 51.7903 25.1101C51.5649 24.7654 51.4522 24.3428 51.4522 23.8423C51.4522 23.4115 51.5351 23.0568 51.7008 22.7784C51.8665 22.5 52.0903 22.2796 52.372 22.1172C52.6537 21.9548 52.9686 21.8321 53.3166 21.7493C53.6646 21.6664 54.0192 21.6035 54.3805 21.5604C54.8379 21.5073 55.2091 21.4643 55.4942 21.4311C55.7792 21.3946 55.9863 21.3366 56.1156 21.2571C56.2449 21.1776 56.3095 21.0483 56.3095 20.8693V20.8345C56.3095 20.4003 56.1869 20.0639 55.9416 19.8253C55.6996 19.5866 55.3384 19.4673 54.8578 19.4673C54.3573 19.4673 53.9629 19.5784 53.6745 19.8004C53.3895 20.0192 53.1923 20.2628 53.0829 20.5312L51.6859 20.2131C51.8516 19.7491 52.0936 19.3745 52.4118 19.0895C52.7333 18.8011 53.1028 18.5923 53.5204 18.4631C53.938 18.3305 54.3772 18.2642 54.8379 18.2642C55.1428 18.2642 55.466 18.3007 55.8074 18.3736C56.1521 18.4432 56.4736 18.5724 56.7719 18.7614C57.0735 18.9503 57.3204 19.2204 57.5126 19.5717C57.7049 19.9197 57.801 20.3722 57.801 20.929V26H56.3493V24.956H56.2896C56.1935 25.1482 56.0493 25.3371 55.8571 25.5227C55.6648 25.7083 55.4179 25.8625 55.1163 25.9851C54.8147 26.1077 54.4534 26.169 54.0325 26.169ZM54.3557 24.9759C54.7666 24.9759 55.118 24.8946 55.4096 24.7322C55.7046 24.5698 55.9283 24.3577 56.0808 24.0959C56.2366 23.8307 56.3145 23.5473 56.3145 23.2457V22.2614C56.2614 22.3144 56.1587 22.3641 56.0062 22.4105C55.8571 22.4536 55.6864 22.4917 55.4942 22.5249C55.3019 22.5547 55.1147 22.5829 54.9324 22.6094C54.7501 22.6326 54.5976 22.6525 54.475 22.669C54.1866 22.7055 53.9231 22.7668 53.6845 22.853C53.4492 22.9392 53.2603 23.0634 53.1177 23.2259C52.9785 23.3849 52.9089 23.5971 52.9089 23.8622C52.9089 24.2301 53.0448 24.5085 53.3166 24.6974C53.5884 24.883 53.9347 24.9759 54.3557 24.9759ZM66.0401 18.3636L63.271 26H61.6801L58.9059 18.3636H60.5018L62.4357 24.2401H62.5153L64.4443 18.3636H66.0401ZM69.4407 26.169C68.9568 26.169 68.5193 26.0795 68.1282 25.9006C67.7371 25.7183 67.4272 25.4548 67.1985 25.1101C66.9731 24.7654 66.8605 24.3428 66.8605 23.8423C66.8605 23.4115 66.9433 23.0568 67.109 22.7784C67.2748 22.5 67.4985 22.2796 67.7802 22.1172C68.0619 21.9548 68.3768 21.8321 68.7248 21.7493C69.0728 21.6664 69.4274 21.6035 69.7887 21.5604C70.2461 21.5073 70.6173 21.4643 70.9024 21.4311C71.1874 21.3946 71.3945 21.3366 71.5238 21.2571C71.6531 21.1776 71.7177 21.0483 71.7177 20.8693V20.8345C71.7177 20.4003 71.5951 20.0639 71.3498 19.8253C71.1078 19.5866 70.7466 19.4673 70.266 19.4673C69.7655 19.4673 69.3711 19.5784 69.0828 19.8004C68.7977 20.0192 68.6005 20.2628 68.4911 20.5312L67.0941 20.2131C67.2598 19.7491 67.5018 19.3745 67.82 19.0895C68.1415 18.8011 68.511 18.5923 68.9286 18.4631C69.3462 18.3305 69.7854 18.2642 70.2461 18.2642C70.551 18.2642 70.8742 18.3007 71.2156 18.3736C71.5603 18.4432 71.8818 18.5724 72.1801 18.7614C72.4817 18.9503 72.7286 19.2204 72.9208 19.5717C73.1131 19.9197 73.2092 20.3722 73.2092 20.929V26H71.7575V24.956H71.6978C71.6017 25.1482 71.4575 25.3371 71.2653 25.5227C71.073 25.7083 70.8261 25.8625 70.5245 25.9851C70.2229 26.1077 69.8616 26.169 69.4407 26.169ZM69.7639 24.9759C70.1748 24.9759 70.5262 24.8946 70.8178 24.7322C71.1128 24.5698 71.3365 24.3577 71.489 24.0959C71.6448 23.8307 71.7227 23.5473 71.7227 23.2457V22.2614C71.6696 22.3144 71.5669 22.3641 71.4144 22.4105C71.2653 22.4536 71.0946 22.4917 70.9024 22.5249C70.7101 22.5547 70.5229 22.5829 70.3406 22.6094C70.1583 22.6326 70.0058 22.6525 69.8832 22.669C69.5948 22.7055 69.3313 22.7668 69.0927 22.853C68.8574 22.9392 68.6685 23.0634 68.5259 23.2259C68.3867 23.3849 68.3171 23.5971 68.3171 23.8622C68.3171 24.2301 68.453 24.5085 68.7248 24.6974C68.9966 24.883 69.3429 24.9759 69.7639 24.9759ZM78.7537 18.3636V19.5568H74.5826V18.3636H78.7537ZM75.7012 16.5341H77.1877V23.7578C77.1877 24.0462 77.2308 24.2633 77.317 24.4091C77.4031 24.5516 77.5142 24.6494 77.65 24.7024C77.7893 24.7521 77.9401 24.777 78.1025 24.777C78.2218 24.777 78.3262 24.7687 78.4157 24.7521C78.5052 24.7356 78.5748 24.7223 78.6245 24.7124L78.8929 25.9403C78.8068 25.9735 78.6841 26.0066 78.525 26.0398C78.366 26.0762 78.1671 26.0961 77.9285 26.0994C77.5374 26.1061 77.1728 26.0365 76.8347 25.8906C76.4966 25.7448 76.2232 25.5194 76.0144 25.2145C75.8056 24.9096 75.7012 24.5268 75.7012 24.0661V16.5341Z" fill="#1F2026"/>
<defs>
<clipPath id="clip0_2_408">
<rect width="24" height="24" fill="white" transform="translate(8.65784 9)"/>
</clipPath>
</defs>
</svg>
