<svg width="125" height="42" viewBox="0 0 125 42" fill="none" xmlns="http://www.w3.org/2000/svg">
<g clip-path="url(#clip0_2_401)">
<path fill-rule="evenodd" clip-rule="evenodd" d="M16.1078 14.5C13.8772 14.5 12.1078 16.3091 12.1078 18.5C12.1078 19.4282 12.4847 20.4436 13.1565 21.5105C13.8248 22.5716 14.7493 23.6274 15.7591 24.6219C17.1655 26.007 18.6396 27.1879 19.7786 28.1003C20.0812 28.3427 20.3601 28.5661 20.6078 28.7694C20.8555 28.5661 21.1344 28.3427 21.437 28.1003C22.576 27.1879 24.0501 26.007 25.4565 24.6219C26.4663 23.6274 27.3909 22.5716 28.0591 21.5105C28.731 20.4436 29.1078 19.4282 29.1078 18.5C29.1078 16.309 27.3392 14.5 25.1078 14.5C22.9551 14.5 21.6816 16.2023 21.334 16.7474C20.9967 17.2765 20.2189 17.2765 19.8816 16.7474C19.534 16.2022 18.2606 14.5 16.1078 14.5ZM10.6078 18.5C10.6078 15.4909 13.0385 13 16.1078 13C18.3393 13 19.8327 14.3021 20.6078 15.2158C21.3829 14.3021 22.8764 13 25.1078 13C28.178 13 30.6078 15.491 30.6078 18.5C30.6078 19.8218 30.0784 21.1189 29.3284 22.3098C28.5747 23.5066 27.5618 24.6539 26.5091 25.6906C25.0507 27.1269 23.4158 28.4384 22.258 29.3672C21.7727 29.7565 21.3712 30.0786 21.1017 30.3144C20.8189 30.5619 20.3967 30.5619 20.1139 30.3144C19.8444 30.0786 19.4429 29.7565 18.9576 29.3672C17.7999 28.4384 16.165 27.1269 14.7066 25.6906C13.6539 24.6539 12.6409 23.5066 11.8873 22.3098C11.1373 21.1189 10.6078 19.8218 10.6078 18.5Z" fill="#1F2026"/>
</g>
<path d="M48.4333 18.4929C48.3803 18.0223 48.1615 17.6577 47.777 17.3991C47.3926 17.1373 46.9087 17.0064 46.3253 17.0064C45.9077 17.0064 45.5465 17.0727 45.2415 17.2053C44.9366 17.3345 44.6996 17.5135 44.5306 17.7422C44.3649 17.9676 44.282 18.2244 44.282 18.5128C44.282 18.7547 44.3384 18.9635 44.451 19.1392C44.567 19.3149 44.7179 19.4624 44.9035 19.5817C45.0924 19.6977 45.2946 19.7955 45.51 19.875C45.7254 19.9512 45.9326 20.0142 46.1314 20.0639L47.1258 20.3224C47.4506 20.402 47.7837 20.5097 48.1251 20.6456C48.4664 20.7815 48.783 20.9605 49.0746 21.1825C49.3663 21.4046 49.6016 21.6797 49.7806 22.0078C49.9629 22.3359 50.054 22.7287 50.054 23.1861C50.054 23.7628 49.9049 24.2749 49.6066 24.7223C49.3116 25.1697 48.8824 25.5227 48.3189 25.7812C47.7588 26.0398 47.081 26.169 46.2856 26.169C45.5233 26.169 44.8637 26.0481 44.3069 25.8061C43.75 25.5642 43.3142 25.2211 42.9993 24.777C42.6845 24.3295 42.5105 23.7992 42.4773 23.1861H44.0185C44.0483 23.554 44.1677 23.8606 44.3765 24.1058C44.5886 24.3478 44.8587 24.5284 45.1868 24.6477C45.5183 24.7637 45.8812 24.8217 46.2756 24.8217C46.7098 24.8217 47.0959 24.7538 47.434 24.6179C47.7754 24.4787 48.0438 24.2865 48.2394 24.0412C48.4349 23.7926 48.5327 23.5026 48.5327 23.1712C48.5327 22.8696 48.4465 22.6226 48.2742 22.4304C48.1052 22.2382 47.8748 22.0791 47.5831 21.9531C47.2948 21.8272 46.9683 21.7161 46.6037 21.62L45.4006 21.2919C44.5853 21.0698 43.939 20.7434 43.4617 20.3125C42.9877 19.8816 42.7508 19.3116 42.7508 18.6023C42.7508 18.0156 42.9099 17.5036 43.228 17.0661C43.5462 16.6286 43.9771 16.2888 44.5206 16.0469C45.0642 15.8016 45.6774 15.679 46.3601 15.679C47.0495 15.679 47.6577 15.8 48.1847 16.0419C48.715 16.2839 49.1326 16.617 49.4376 17.0412C49.7425 17.4621 49.9016 17.946 49.9148 18.4929H48.4333ZM53.9928 26.169C53.5089 26.169 53.0714 26.0795 52.6803 25.9006C52.2892 25.7183 51.9793 25.4548 51.7506 25.1101C51.5252 24.7654 51.4125 24.3428 51.4125 23.8423C51.4125 23.4115 51.4954 23.0568 51.6611 22.7784C51.8268 22.5 52.0505 22.2796 52.3323 22.1172C52.614 21.9548 52.9288 21.8321 53.2769 21.7493C53.6249 21.6664 53.9795 21.6035 54.3408 21.5604C54.7982 21.5073 55.1694 21.4643 55.4544 21.4311C55.7395 21.3946 55.9466 21.3366 56.0759 21.2571C56.2051 21.1776 56.2698 21.0483 56.2698 20.8693V20.8345C56.2698 20.4003 56.1471 20.0639 55.9019 19.8253C55.6599 19.5866 55.2986 19.4673 54.8181 19.4673C54.3176 19.4673 53.9232 19.5784 53.6348 19.8004C53.3498 20.0192 53.1526 20.2628 53.0432 20.5312L51.6462 20.2131C51.8119 19.7491 52.0538 19.3745 52.372 19.0895C52.6935 18.8011 53.0631 18.5923 53.4807 18.4631C53.8983 18.3305 54.3375 18.2642 54.7982 18.2642C55.1031 18.2642 55.4262 18.3007 55.7676 18.3736C56.1123 18.4432 56.4338 18.5724 56.7321 18.7614C57.0337 18.9503 57.2806 19.2204 57.4729 19.5717C57.6651 19.9197 57.7612 20.3722 57.7612 20.929V26H56.3095V24.956H56.2499C56.1538 25.1482 56.0096 25.3371 55.8173 25.5227C55.6251 25.7083 55.3782 25.8625 55.0766 25.9851C54.775 26.1077 54.4137 26.169 53.9928 26.169ZM54.3159 24.9759C54.7269 24.9759 55.0782 24.8946 55.3699 24.7322C55.6649 24.5698 55.8886 24.3577 56.0411 24.0959C56.1968 23.8307 56.2747 23.5473 56.2747 23.2457V22.2614C56.2217 22.3144 56.119 22.3641 55.9665 22.4105C55.8173 22.4536 55.6467 22.4917 55.4544 22.5249C55.2622 22.5547 55.0749 22.5829 54.8926 22.6094C54.7103 22.6326 54.5579 22.6525 54.4352 22.669C54.1469 22.7055 53.8834 22.7668 53.6448 22.853C53.4094 22.9392 53.2205 23.0634 53.078 23.2259C52.9388 23.3849 52.8692 23.5971 52.8692 23.8622C52.8692 24.2301 53.0051 24.5085 53.2769 24.6974C53.5486 24.883 53.895 24.9759 54.3159 24.9759ZM59.7412 26V18.3636H61.178V19.5767H61.2575C61.3967 19.1657 61.642 18.8426 61.9933 18.6072C62.3479 18.3686 62.749 18.2493 63.1964 18.2493C63.2892 18.2493 63.3986 18.2526 63.5246 18.2592C63.6538 18.2659 63.7549 18.2741 63.8278 18.2841V19.706C63.7682 19.6894 63.6621 19.6712 63.5096 19.6513C63.3572 19.6281 63.2047 19.6165 63.0523 19.6165C62.7009 19.6165 62.3877 19.6911 62.1126 19.8402C61.8408 19.986 61.6254 20.1899 61.4663 20.4517C61.3072 20.7102 61.2277 21.0052 61.2277 21.3366V26H59.7412ZM67.2682 26.169C66.7843 26.169 66.3468 26.0795 65.9557 25.9006C65.5646 25.7183 65.2547 25.4548 65.026 25.1101C64.8006 24.7654 64.6879 24.3428 64.6879 23.8423C64.6879 23.4115 64.7708 23.0568 64.9365 22.7784C65.1022 22.5 65.3259 22.2796 65.6076 22.1172C65.8894 21.9548 66.2042 21.8321 66.5523 21.7493C66.9003 21.6664 67.2549 21.6035 67.6162 21.5604C68.0736 21.5073 68.4448 21.4643 68.7298 21.4311C69.0148 21.3946 69.222 21.3366 69.3513 21.2571C69.4805 21.1776 69.5451 21.0483 69.5451 20.8693V20.8345C69.5451 20.4003 69.4225 20.0639 69.1773 19.8253C68.9353 19.5866 68.574 19.4673 68.0934 19.4673C67.593 19.4673 67.1986 19.5784 66.9102 19.8004C66.6252 20.0192 66.428 20.2628 66.3186 20.5312L64.9216 20.2131C65.0873 19.7491 65.3292 19.3745 65.6474 19.0895C65.9689 18.8011 66.3385 18.5923 66.7561 18.4631C67.1737 18.3305 67.6129 18.2642 68.0736 18.2642C68.3785 18.2642 68.7016 18.3007 69.043 18.3736C69.3877 18.4432 69.7092 18.5724 70.0075 18.7614C70.3091 18.9503 70.556 19.2204 70.7483 19.5717C70.9405 19.9197 71.0366 20.3722 71.0366 20.929V26H69.5849V24.956H69.5253C69.4291 25.1482 69.285 25.3371 69.0927 25.5227C68.9005 25.7083 68.6536 25.8625 68.352 25.9851C68.0504 26.1077 67.6891 26.169 67.2682 26.169ZM67.5913 24.9759C68.0023 24.9759 68.3536 24.8946 68.6453 24.7322C68.9403 24.5698 69.164 24.3577 69.3165 24.0959C69.4722 23.8307 69.5501 23.5473 69.5501 23.2457V22.2614C69.4971 22.3144 69.3943 22.3641 69.2419 22.4105C69.0927 22.4536 68.922 22.4917 68.7298 22.5249C68.5376 22.5547 68.3503 22.5829 68.168 22.6094C67.9857 22.6326 67.8333 22.6525 67.7106 22.669C67.4223 22.7055 67.1588 22.7668 66.9201 22.853C66.6848 22.9392 66.4959 23.0634 66.3534 23.2259C66.2142 23.3849 66.1446 23.5971 66.1446 23.8622C66.1446 24.2301 66.2805 24.5085 66.5523 24.6974C66.824 24.883 67.1704 24.9759 67.5913 24.9759ZM74.5031 15.8182V26H73.0166V15.8182H74.5031ZM78.7252 26.169C78.2413 26.169 77.8038 26.0795 77.4127 25.9006C77.0216 25.7183 76.7117 25.4548 76.483 25.1101C76.2576 24.7654 76.1449 24.3428 76.1449 23.8423C76.1449 23.4115 76.2278 23.0568 76.3935 22.7784C76.5592 22.5 76.783 22.2796 77.0647 22.1172C77.3464 21.9548 77.6613 21.8321 78.0093 21.7493C78.3573 21.6664 78.7119 21.6035 79.0732 21.5604C79.5306 21.5073 79.9018 21.4643 80.1868 21.4311C80.4719 21.3946 80.679 21.3366 80.8083 21.2571C80.9375 21.1776 81.0022 21.0483 81.0022 20.8693V20.8345C81.0022 20.4003 80.8795 20.0639 80.6343 19.8253C80.3923 19.5866 80.0311 19.4673 79.5505 19.4673C79.05 19.4673 78.6556 19.5784 78.3672 19.8004C78.0822 20.0192 77.885 20.2628 77.7756 20.5312L76.3786 20.2131C76.5443 19.7491 76.7863 19.3745 77.1045 19.0895C77.4259 18.8011 77.7955 18.5923 78.2131 18.4631C78.6307 18.3305 79.0699 18.2642 79.5306 18.2642C79.8355 18.2642 80.1587 18.3007 80.5001 18.3736C80.8447 18.4432 81.1662 18.5724 81.4645 18.7614C81.7661 18.9503 82.0131 19.2204 82.2053 19.5717C82.3975 19.9197 82.4937 20.3722 82.4937 20.929V26H81.042V24.956H80.9823C80.8862 25.1482 80.742 25.3371 80.5498 25.5227C80.3575 25.7083 80.1106 25.8625 79.809 25.9851C79.5074 26.1077 79.1461 26.169 78.7252 26.169ZM79.0483 24.9759C79.4593 24.9759 79.8107 24.8946 80.1023 24.7322C80.3973 24.5698 80.621 24.3577 80.7735 24.0959C80.9293 23.8307 81.0072 23.5473 81.0072 23.2457V22.2614C80.9541 22.3144 80.8514 22.3641 80.6989 22.4105C80.5498 22.4536 80.3791 22.4917 80.1868 22.5249C79.9946 22.5547 79.8073 22.5829 79.6251 22.6094C79.4428 22.6326 79.2903 22.6525 79.1677 22.669C78.8793 22.7055 78.6158 22.7668 78.3772 22.853C78.1419 22.9392 77.9529 23.0634 77.8104 23.2259C77.6712 23.3849 77.6016 23.5971 77.6016 23.8622C77.6016 24.2301 77.7375 24.5085 78.0093 24.6974C78.2811 24.883 78.6274 24.9759 79.0483 24.9759ZM85.9601 21.4659V26H84.4736V18.3636H85.9004V19.6065H85.9949C86.1706 19.2022 86.4457 18.8774 86.8202 18.6321C87.198 18.3868 87.6736 18.2642 88.247 18.2642C88.7674 18.2642 89.2231 18.3736 89.6142 18.5923C90.0053 18.8078 90.3086 19.1293 90.524 19.5568C90.7395 19.9844 90.8472 20.513 90.8472 21.1428V26H89.3607V21.3217C89.3607 20.7682 89.2165 20.3357 88.9281 20.0241C88.6398 19.7093 88.2437 19.5518 87.7399 19.5518C87.3952 19.5518 87.0887 19.6264 86.8202 19.7756C86.555 19.9247 86.3446 20.1435 86.1888 20.4318C86.0363 20.7169 85.9601 21.0616 85.9601 21.4659ZM96.0425 29.0227C95.436 29.0227 94.9139 28.9432 94.4764 28.7841C94.0422 28.625 93.6876 28.4145 93.4125 28.1527C93.1374 27.8909 92.9319 27.6042 92.796 27.2926L94.0737 26.7656C94.1632 26.9115 94.2825 27.0656 94.4317 27.228C94.5842 27.3937 94.7896 27.5346 95.0482 27.6506C95.31 27.7666 95.6464 27.8246 96.0574 27.8246C96.6208 27.8246 97.0865 27.687 97.4544 27.4119C97.8223 27.1402 98.0063 26.706 98.0063 26.1094V24.608H97.9118C97.8223 24.7704 97.6931 24.951 97.524 25.1499C97.3583 25.3487 97.1296 25.5211 96.8379 25.6669C96.5463 25.8127 96.1668 25.8857 95.6994 25.8857C95.0962 25.8857 94.5527 25.7448 94.0688 25.4631C93.5882 25.178 93.207 24.7588 92.9253 24.2053C92.6469 23.6484 92.5077 22.964 92.5077 22.152C92.5077 21.34 92.6452 20.6439 92.9203 20.0639C93.1987 19.4839 93.5799 19.0398 94.0638 18.7315C94.5477 18.42 95.0962 18.2642 95.7094 18.2642C96.1833 18.2642 96.5662 18.3438 96.8578 18.5028C97.1495 18.6586 97.3765 18.8409 97.5389 19.0497C97.7047 19.2585 97.8323 19.4425 97.9217 19.6016H98.0311V18.3636H99.4878V26.169C99.4878 26.8253 99.3353 27.3639 99.0304 27.7848C98.7255 28.2057 98.3128 28.5173 97.7925 28.7195C97.2754 28.9216 96.6921 29.0227 96.0425 29.0227ZM96.0276 24.6527C96.4551 24.6527 96.8164 24.5533 97.1114 24.3544C97.4097 24.1522 97.6351 23.8639 97.7875 23.4893C97.9433 23.1115 98.0212 22.6591 98.0212 22.1321C98.0212 21.6184 97.9449 21.166 97.7925 20.7749C97.64 20.3838 97.4163 20.0788 97.1213 19.8601C96.8263 19.638 96.4618 19.527 96.0276 19.527C95.5801 19.527 95.2073 19.643 94.909 19.875C94.6107 20.1037 94.3853 20.4152 94.2328 20.8097C94.0837 21.2041 94.0091 21.6449 94.0091 22.1321C94.0091 22.6326 94.0853 23.0717 94.2378 23.4496C94.3903 23.8274 94.6156 24.1224 94.9139 24.3345C95.2155 24.5466 95.5868 24.6527 96.0276 24.6527ZM103.704 26.169C103.22 26.169 102.782 26.0795 102.391 25.9006C102 25.7183 101.69 25.4548 101.462 25.1101C101.236 24.7654 101.123 24.3428 101.123 23.8423C101.123 23.4115 101.206 23.0568 101.372 22.7784C101.538 22.5 101.761 22.2796 102.043 22.1172C102.325 21.9548 102.64 21.8321 102.988 21.7493C103.336 21.6664 103.69 21.6035 104.052 21.5604C104.509 21.5073 104.88 21.4643 105.165 21.4311C105.45 21.3946 105.658 21.3366 105.787 21.2571C105.916 21.1776 105.981 21.0483 105.981 20.8693V20.8345C105.981 20.4003 105.858 20.0639 105.613 19.8253C105.371 19.5866 105.01 19.4673 104.529 19.4673C104.029 19.4673 103.634 19.5784 103.346 19.8004C103.061 20.0192 102.864 20.2628 102.754 20.5312L101.357 20.2131C101.523 19.7491 101.765 19.3745 102.083 19.0895C102.404 18.8011 102.774 18.5923 103.192 18.4631C103.609 18.3305 104.048 18.2642 104.509 18.2642C104.814 18.2642 105.137 18.3007 105.479 18.3736C105.823 18.4432 106.145 18.5724 106.443 18.7614C106.745 18.9503 106.992 19.2204 107.184 19.5717C107.376 19.9197 107.472 20.3722 107.472 20.929V26H106.02V24.956H105.961C105.865 25.1482 105.721 25.3371 105.528 25.5227C105.336 25.7083 105.089 25.8625 104.788 25.9851C104.486 26.1077 104.125 26.169 103.704 26.169ZM104.027 24.9759C104.438 24.9759 104.789 24.8946 105.081 24.7322C105.376 24.5698 105.6 24.3577 105.752 24.0959C105.908 23.8307 105.986 23.5473 105.986 23.2457V22.2614C105.933 22.3144 105.83 22.3641 105.677 22.4105C105.528 22.4536 105.358 22.4917 105.165 22.5249C104.973 22.5547 104.786 22.5829 104.604 22.6094C104.421 22.6326 104.269 22.6525 104.146 22.669C103.858 22.7055 103.594 22.7668 103.356 22.853C103.12 22.9392 102.931 23.0634 102.789 23.2259C102.65 23.3849 102.58 23.5971 102.58 23.8622C102.58 24.2301 102.716 24.5085 102.988 24.6974C103.26 24.883 103.606 24.9759 104.027 24.9759ZM110.939 21.4659V26H109.452V18.3636H110.879V19.6065H110.973C111.149 19.2022 111.424 18.8774 111.799 18.6321C112.177 18.3868 112.652 18.2642 113.226 18.2642C113.746 18.2642 114.202 18.3736 114.593 18.5923C114.984 18.8078 115.287 19.1293 115.503 19.5568C115.718 19.9844 115.826 20.513 115.826 21.1428V26H114.339V21.3217C114.339 20.7682 114.195 20.3357 113.907 20.0241C113.618 19.7093 113.222 19.5518 112.718 19.5518C112.374 19.5518 112.067 19.6264 111.799 19.7756C111.534 19.9247 111.323 20.1435 111.167 20.4318C111.015 20.7169 110.939 21.0616 110.939 21.4659Z" fill="#1F2026"/>
<defs>
<clipPath id="clip0_2_401">
<rect width="24" height="24" fill="white" transform="translate(8.60785 9)"/>
</clipPath>
</defs>
</svg>
