<svg width="33" height="33" viewBox="0 0 33 33" fill="none" xmlns="http://www.w3.org/2000/svg">
<g clip-path="url(#clip0_1_26928)">
<path d="M16.6 0.400391C29.9333 0.400391 32.6 3.06706 32.6 16.4004C32.6 29.7337 29.9333 32.4004 16.6 32.4004C3.26664 32.4004 0.599976 29.7337 0.599976 16.4004C0.599976 3.06706 3.26664 0.400391 16.6 0.400391Z" fill="url(#paint0_linear_1_26928)"/>
<path d="M8.46114 16.2656C13.1255 14.2335 16.2358 12.8937 17.792 12.2464C22.2354 10.3983 23.1587 10.0773 23.7605 10.0665C23.8929 10.0643 24.1888 10.0971 24.3805 10.2527C24.5423 10.384 24.5869 10.5614 24.6082 10.686C24.6295 10.8105 24.6561 11.0941 24.635 11.3158C24.3942 13.8458 23.3523 19.9854 22.8222 22.819C22.5979 24.018 22.1563 24.42 21.7288 24.4594C20.7996 24.5449 20.0941 23.8453 19.1942 23.2555C17.7859 22.3323 16.9904 21.7577 15.6235 20.8569C14.0438 19.816 15.0678 19.2437 15.9681 18.3087C16.2037 18.064 20.2976 14.3403 20.3768 14.0025C20.3867 13.9603 20.3959 13.8028 20.3023 13.7197C20.2088 13.6365 20.0707 13.665 19.971 13.6875C19.8298 13.7196 17.5802 15.2065 13.2222 18.1483C12.5836 18.5868 12.0052 18.8005 11.487 18.7893C10.9158 18.7769 9.81685 18.4662 8.99991 18.2007C7.99787 17.8749 7.20152 17.7028 7.27087 17.1496C7.30699 16.8615 7.70375 16.5668 8.46114 16.2656Z" fill="white"/>
</g>
<defs>
<linearGradient id="paint0_linear_1_26928" x1="16.6" y1="0.400391" x2="16.6" y2="32.1629" gradientUnits="userSpaceOnUse">
<stop stop-color="#2AABEE"/>
<stop offset="1" stop-color="#229ED9"/>
</linearGradient>
<clipPath id="clip0_1_26928">
<rect width="32" height="32" fill="white" transform="translate(0.599976 0.400391)"/>
</clipPath>
</defs>
</svg>
