<svg width="55" height="55" viewBox="0 0 55 55" fill="none" xmlns="http://www.w3.org/2000/svg">
<path d="M53.2 27.8C53.2 42.159 41.559 53.8 27.2 53.8C12.841 53.8 1.19995 42.159 1.19995 27.8C1.19995 13.441 12.841 1.80005 27.2 1.80005C41.559 1.80005 53.2 13.441 53.2 27.8Z" fill="#7000FF"/>
<path d="M27.2 54.8C12.312 54.8 0.199951 42.688 0.199951 27.8C0.199951 12.912 12.312 0.800049 27.2 0.800049C42.088 0.800049 54.2 12.912 54.2 27.8C54.2 42.688 42.088 54.8 27.2 54.8ZM27.2 2.80005C13.415 2.80005 2.19995 14.015 2.19995 27.8C2.19995 41.585 13.415 52.8 27.2 52.8C40.985 52.8 52.2 41.585 52.2 27.8C52.2 14.015 40.985 2.80005 27.2 2.80005Z" fill="white"/>
<path d="M39.2 33.506C38.944 33.506 38.688 33.408 38.493 33.213L27.2 21.92L15.907 33.213C15.516 33.604 14.884 33.604 14.493 33.213C14.102 32.822 14.102 32.19 14.493 31.799L25.991 20.301C26.657 19.635 27.743 19.635 28.409 20.301L39.907 31.799C40.298 32.19 40.298 32.822 39.907 33.213C39.712 33.408 39.456 33.506 39.2 33.506Z" fill="white"/>
</svg>
