<svg width="21" height="21" viewBox="0 0 21 21" fill="none" xmlns="http://www.w3.org/2000/svg">
<path d="M6.54998 2.03003C9.1179 2.03003 10.6 4.18237 10.6 4.18237C10.6 4.18237 12.085 2.03003 14.65 2.03003C17.305 2.03003 19.6 4.10003 19.6 6.98003C19.6 11.2105 13.1604 15.6497 10.9651 17.5903C10.7582 17.7732 10.4418 17.7732 10.2349 17.5903C8.04054 15.6509 1.59998 11.2103 1.59998 6.98003C1.59998 4.10003 3.89498 2.03003 6.54998 2.03003Z" fill="white" fill-opacity="0.6"/>
<path d="M1.59998 6.89489C1.59998 4.233 3.75015 2.03003 6.46484 2.03003C8.58683 2.03003 9.95919 3.38879 10.6 4.21676C11.2408 3.38879 12.6132 2.03003 14.7351 2.03003C17.4506 2.03003 19.6 4.23305 19.6 6.89489C19.6 8.0599 19.1328 9.21625 18.4534 10.295C17.7716 11.3776 16.852 12.4203 15.89 13.3677C14.5567 14.6808 13.0757 15.8687 12.0134 16.7207C11.5618 17.0829 11.1859 17.3844 10.9293 17.609C10.7407 17.7739 10.4592 17.7739 10.2707 17.609C10.014 17.3844 9.63813 17.0829 9.18657 16.7207C8.12429 15.8687 6.64324 14.6808 5.30995 13.3677C4.348 12.4203 3.42834 11.3776 2.74657 10.295C2.06722 9.21625 1.59998 8.0599 1.59998 6.89489ZM6.46484 3.03003C4.30927 3.03003 2.59998 4.77841 2.59998 6.89489C2.59998 7.79746 2.96551 8.7661 3.59275 9.76211C4.21757 10.7542 5.07831 11.736 6.01163 12.6552C7.31031 13.9342 8.68421 15.035 9.73394 15.8761C10.0573 16.1352 10.3498 16.3696 10.6 16.577C10.8501 16.3696 11.1427 16.1352 11.466 15.8761C12.5158 15.035 13.8897 13.9342 15.1883 12.6552C16.1217 11.736 16.9824 10.7542 17.6072 9.76211C18.2345 8.7661 18.6 7.79746 18.6 6.89489C18.6 4.77836 16.8914 3.03003 14.7351 3.03003C12.6406 3.03003 11.4181 4.73214 11.1033 5.24031C10.8727 5.61253 10.3272 5.61252 10.0967 5.2403C9.78188 4.73213 8.55942 3.03003 6.46484 3.03003Z" fill="#1F2026"/>
</svg>
